<svg width="1054" height="50" viewBox="0 0 1054 4" fill="none" xmlns="http://www.w3.org/2000/svg">
	<path
		d="M0 2C0 0.89543 0.89543 0 2 0C3.10457 0 4 0.89543 4 2C4 3.10457 3.10457 4 2 4C0.89543 4 0 3.10457 0 2Z"
		fill="#D9D9D9"
	/>
	<path
		d="M50 2C50 0.89543 50.8954 0 52 0C53.1046 0 54 0.89543 54 2C54 3.10457 53.1046 4 52 4C50.8954 4 50 3.10457 50 2Z"
		fill="#D9D9D9"
	/>
	<path
		d="M100 2C100 0.89543 100.895 0 102 0C103.105 0 104 0.89543 104 2C104 3.10457 103.105 4 102 4C100.895 4 100 3.10457 100 2Z"
		fill="#D9D9D9"
	/>
	<path
		d="M150 2C150 0.89543 150.895 0 152 0C153.105 0 154 0.89543 154 2C154 3.10457 153.105 4 152 4C150.895 4 150 3.10457 150 2Z"
		fill="#D9D9D9"
	/>
	<path
		d="M200 2C200 0.89543 200.895 0 202 0C203.105 0 204 0.89543 204 2C204 3.10457 203.105 4 202 4C200.895 4 200 3.10457 200 2Z"
		fill="#D9D9D9"
		fill-opacity="0.95"
	/>
	<path
		d="M250 2C250 0.89543 250.895 0 252 0C253.105 0 254 0.89543 254 2C254 3.10457 253.105 4 252 4C250.895 4 250 3.10457 250 2Z"
		fill="#D9D9D9"
		fill-opacity="0.9"
	/>
	<path
		d="M300 2C300 0.89543 300.895 0 302 0C303.105 0 304 0.89543 304 2C304 3.10457 303.105 4 302 4C300.895 4 300 3.10457 300 2Z"
		fill="#D9D9D9"
		fill-opacity="0.85"
	/>
	<path
		d="M350 2C350 0.89543 350.895 0 352 0C353.105 0 354 0.89543 354 2C354 3.10457 353.105 4 352 4C350.895 4 350 3.10457 350 2Z"
		fill="#D9D9D9"
		fill-opacity="0.8"
	/>
	<path
		d="M400 2C400 0.89543 400.895 0 402 0C403.105 0 404 0.89543 404 2C404 3.10457 403.105 4 402 4C400.895 4 400 3.10457 400 2Z"
		fill="#D9D9D9"
		fill-opacity="0.75"
	/>
	<path
		d="M450 2C450 0.89543 450.895 0 452 0C453.105 0 454 0.89543 454 2C454 3.10457 453.105 4 452 4C450.895 4 450 3.10457 450 2Z"
		fill="#D9D9D9"
		fill-opacity="0.7"
	/>
	<path
		d="M500 2C500 0.89543 500.895 0 502 0C503.105 0 504 0.89543 504 2C504 3.10457 503.105 4 502 4C500.895 4 500 3.10457 500 2Z"
		fill="#D9D9D9"
		fill-opacity="0.65"
	/>
	<path
		d="M550 2C550 0.89543 550.895 0 552 0C553.105 0 554 0.89543 554 2C554 3.10457 553.105 4 552 4C550.895 4 550 3.10457 550 2Z"
		fill="#D9D9D9"
		fill-opacity="0.6"
	/>
	<path
		d="M600 2C600 0.89543 600.895 0 602 0C603.105 0 604 0.89543 604 2C604 3.10457 603.105 4 602 4C600.895 4 600 3.10457 600 2Z"
		fill="#D9D9D9"
		fill-opacity="0.55"
	/>
	<path
		d="M654 2C654 3.10457 653.105 4 652 4C650.895 4 650 3.10457 650 2C650 0.89543 650.895 0 652 0C653.105 0 654 0.89543 654 2Z"
		fill="#D9D9D9"
		fill-opacity="0.5"
	/>
	<path
		d="M704 2C704 3.10457 703.105 4 702 4C700.895 4 700 3.10457 700 2C700 0.89543 700.895 0 702 0C703.105 0 704 0.89543 704 2Z"
		fill="#D9D9D9"
		fill-opacity="0.45"
	/>
	<path
		d="M754 2C754 3.10457 753.105 4 752 4C750.895 4 750 3.10457 750 2C750 0.89543 750.895 0 752 0C753.105 0 754 0.89543 754 2Z"
		fill="#D9D9D9"
		fill-opacity="0.4"
	/>
	<path
		d="M804 2C804 3.10457 803.105 4 802 4C800.895 4 800 3.10457 800 2C800 0.89543 800.895 0 802 0C803.105 0 804 0.89543 804 2Z"
		fill="#D9D9D9"
		fill-opacity="0.35"
	/>
	<path
		d="M854 2C854 3.10457 853.105 4 852 4C850.895 4 850 3.10457 850 2C850 0.89543 850.895 0 852 0C853.105 0 854 0.89543 854 2Z"
		fill="#D9D9D9"
		fill-opacity="0.3"
	/>
	<path
		d="M904 2C904 3.10457 903.105 4 902 4C900.895 4 900 3.10457 900 2C900 0.89543 900.895 0 902 0C903.105 0 904 0.89543 904 2Z"
		fill="#D9D9D9"
		fill-opacity="0.25"
	/>
	<path
		d="M954 2C954 3.10457 953.105 4 952 4C950.895 4 950 3.10457 950 2C950 0.89543 950.895 0 952 0C953.105 0 954 0.89543 954 2Z"
		fill="#D9D9D9"
		fill-opacity="0.2"
	/>
	<path
		d="M1004 2C1004 3.10457 1003.1 4 1002 4C1000.9 4 1000 3.10457 1000 2C1000 0.89543 1000.9 0 1002 0C1003.1 0 1004 0.89543 1004 2Z"
		fill="#D9D9D9"
		fill-opacity="0.15"
	/>
	<path
		d="M1054 2C1054 3.10457 1053.1 4 1052 4C1050.9 4 1050 3.10457 1050 2C1050 0.89543 1050.9 0 1052 0C1053.1 0 1054 0.89543 1054 2Z"
		fill="#D9D9D9"
		fill-opacity="0.1"
	/>
</svg>
