<?xml version="1.0" standalone="no"?>
<!DOCTYPE svg PUBLIC "-//W3C//DTD SVG 20010904//EN"
 "http://www.w3.org/TR/2001/REC-SVG-20010904/DTD/svg10.dtd">
<svg version="1.0" xmlns="http://www.w3.org/2000/svg"
 width="700.000000pt" height="700.000000pt" viewBox="0 0 700.000000 700.000000"
 preserveAspectRatio="xMidYMid meet">
<metadata>
Created by potrace 1.14, written by Peter Selinger 2001-2017
</metadata>
<g transform="translate(0.000000,700.000000) scale(0.100000,-0.100000)"
fill="#000000" stroke="none">
<path d="M615 6981 c-124 -32 -205 -70 -305 -147 -153 -116 -266 -296 -299
-478 -8 -42 -11 -898 -11 -2924 0 -3152 -5 -2906 60 -3048 60 -134 148 -239
274 -328 l78 -56 3083 0 3084 0 38 22 c152 88 284 251 351 431 l27 72 3 2890
c2 2685 1 2895 -14 2960 -70 288 -267 499 -559 597 l-70 23 -2835 2 c-2692 2
-2839 1 -2905 -16z m5040 -1821 c470 -100 793 -383 940 -822 50 -150 76 -313
76 -483 1 -208 -30 -382 -102 -562 -183 -462 -598 -843 -1094 -1006 -424 -139
-802 -127 -1141 38 -140 68 -244 145 -364 271 l-95 99 -60 -12 c-211 -42 -618
-16 -1195 77 -545 88 -725 102 -789 65 -102 -60 -149 -283 -121 -582 15 -164
4 -221 -54 -289 -81 -94 -263 -150 -352 -108 -47 23 -62 46 -139 227 -196 457
-537 1085 -833 1531 -106 160 -137 227 -126 275 25 106 167 191 321 191 79 0
143 -29 236 -105 73 -60 124 -132 279 -395 160 -269 213 -325 261 -272 8 9 32
76 52 147 207 743 526 1272 886 1468 251 137 495 52 540 -189 27 -144 -79
-329 -356 -624 -274 -291 -365 -434 -365 -572 0 -64 28 -118 81 -152 149 -99
554 -156 1297 -182 121 -4 192 -3 192 3 0 6 -9 52 -20 104 -35 163 -46 348
-30 506 22 223 28 196 -75 318 -35 42 -40 54 -43 110 -4 52 0 73 22 120 103
226 470 484 941 660 202 76 410 128 633 160 146 21 466 13 597 -15z"/>
<path d="M5030 4659 c-477 -55 -792 -251 -893 -556 -67 -204 -57 -456 29 -713
106 -318 310 -531 604 -631 85 -29 110 -33 235 -37 104 -3 163 0 230 13 451
84 779 365 882 754 35 129 37 330 5 467 -68 298 -219 501 -457 615 -171 83
-402 115 -635 88z"/>
</g>
</svg>
